# xmcd
#
# Track frame offsets:
#       150
#       1059
#       27931
#       78984
#       108121
#       168794
#       196796
#       224334
#
# Disc length: 3292 seconds
#
# Revision: 2
# Processed by: cddbd v1.5PL3 Copyright (c) Steve Scherf et al.
# Submitted via: MusiCat 1.1
#
DISCID=510cda08
DTITLE=Jethro Tull - 1970-01-16 - Blues From Chicago
DYEAR=1900
DGENRE=
TTITLE0=My Sunday Feeling
TTITLE1=My God
TTITLE2=To Cry You A Song 
TTITLE3=With You There To Help Me 
TTITLE4=Sossity, You're A Woman
TTITLE5=Reasons For Waiting
TTITLE6=Nothing Is Easy 
TTITLE7=For A Thousand Mothers 
EXTD=\n\n
EXTT0=
EXTT1=
EXTT2=
EXTT3=
EXTT4=
EXTT5=
EXTT6=
EXTT7=
PLAYORDER=
